#!OML:ASF H:\BabyWalks\Project 1\Capture day 1\Session 1\baby.ASF
:FULLY-SPECIFIED
:DEGREES
769
root 35.9062 17.4549 0.656547 170.658 80.4957 171.559
lowerback 17.8446 -0.629985 1.74073
upperback 8.24419 0.106298 1.5734
thorax -1.18426 0.323885 0.646736
lowerneck -1.10049 -2.94943 4.30837
upperneck 2.82677 -3.85913 -5.40065
head 0.876232 -1.93863 -2.48748
rclavicle -2.82274e-014 2.70347e-014
rhumerus -40.6419 3.73269 -78.884
rradius 46.8383
rwrist -2.38978
rhand -11.1375 -16.6291
rfingers 7.12502
rthumb 14.8881 -46.0741
lclavicle -2.82274e-014 2.70347e-014
lhumerus -43.6243 -4.00341 80.0289
lradius 63.3062
lwrist 5.52094
lhand -1.68053 10.2206
lfingers 7.12502
lthumb 23.9798 38.7429
rfemur -17.9824 -2.65178 18.0922
rtibia 34.4701
rfoot -13.4389 -11.0982
rtoes 1.58656
lfemur 15.7263 -10.7629 -16.9403
ltibia 1.40236
lfoot -17.2185 -0.654243
ltoes -10.4613
770
root 35.9214 17.4541 0.665991 171.292 80.5115 172.116
lowerback 17.8251 -0.628446 1.79217
upperback 8.23645 0.115948 1.59653
thorax -1.1824 0.32915 0.640205
lowerneck -1.09699 -2.94661 4.29565
upperneck 2.79954 -3.85823 -5.33359
head 0.868433 -1.93776 -2.46238
rclavicle -1.19271e-015 5.56597e-015
rhumerus -40.6972 3.62699 -78.8693
rradius 46.6709
rwrist -2.1991
rhand -11.0787 -16.6324
rfingers 7.12502
rthumb 14.9447 -46.0733
lclavicle -1.19271e-015 5.56597e-015
lhumerus -43.5464 -4.11247 80.0527
lradius 63.708
lwrist 5.81068
lhand -1.75291 10.2499
lfingers 7.12502
lthumb 23.9104 38.7813
rfemur -18.0369 -2.66739 18.2481
rtibia 34.4859
rfoot -13.4904 -11.1081
rtoes 1.58391
lfemur 15.6359 -10.7674 -16.7848
ltibia 1.50739
lfoot -17.3167 -0.637988
ltoes -10.5118
771
root 35.9359 17.4535 0.675084 171.96 80.5207 172.715
lowerback 17.8148 -0.629201 1.84664
upperback 8.22923 0.123725 1.62122
thorax -1.18468 0.333651 0.633968
lowerneck -1.09439 -2.9435 4.27982
upperneck 2.7729 -3.85701 -5.26149
head 0.861134 -1.93672 -2.4351
rclavicle 1.03368e-014 3.26007e-014
rhumerus -40.7578 3.52692 -78.854
rradius 46.5102
rwrist -2.01963
rhand -11.0465 -16.628
rfingers 7.12502
rthumb 14.9757 -46.0665
lclavicle 1.03368e-014 3.26007e-014
lhumerus -43.4688 -4.22111 80.0767
lradius 64.0811
lwrist 6.06903
lhand -1.77072 10.2984
lfingers 7.12502
lthumb 23.8933 38.8321
rfemur -18.0796 -2.68077 18.4087
rtibia 34.493
rfoot -13.5337 -11.1291
rtoes 1.57366
lfemur 15.502 -10.778 -16.6254
ltibia 1.71252
lfoot -17.4616 -0.614686
ltoes -10.5605
772
root 35.9498 17.453 0.683755 172.611 80.5154 173.305
lowerback 17.8101 -0.634281 1.89614
upperback 8.22376 0.125571 1.64539
thorax -1.18804 0.335247 0.631085
lowerneck -1.0914 -2.93851 4.2651
upperneck 2.74472 -3.85333 -5.1887
head 0.853407 -1.93445 -2.40779
rclavicle -3.18055e-015 3.4191e-014
rhumerus -40.8213 3.43342 -78.8389
rradius 46.3595
rwrist -1.85248
rhand -11.0309 -16.6223
rfingers 7.12502
rthumb 14.9907 -46.0597
lclavicle -3.18055e-015 3.4191e-014
lhumerus -43.3905 -4.32928 80.1019
lradius 64.4197
lwrist 6.28992
lhand -1.7509 10.3513
lfingers 7.12502
lthumb 23.9123 38.8825
rfemur -18.1126 -2.69737 18.5632
rtibia 34.4972
rfoot -13.5737 -11.1609
rtoes 1.5582
lfemur 15.3839 -10.8014 -16.4725
ltibia 1.89091
lfoot -17.5868 -0.597757
ltoes -10.6005
773
root 35.9629 17.4527 0.692001 173.191 80.4999 173.831
lowerback 17.8155 -0.640347 1.93315
upperback 8.2188 0.12461 1.66593
thorax -1.1961 0.335282 0.631953
lowerneck -1.08603 -2.93236 4.25778
upperneck 2.71404 -3.84813 -5.1199
head 0.844362 -1.93137 -2.38307
rclavicle -2.74323e-014 -3.97569e-015
rhumerus -40.8861 3.34471 -78.8232
rradius 46.2151
rwrist -1.69776
rhand -11.0261 -16.6132
rfingers 7.12502
rthumb 14.9954 -46.0502
lclavicle -2.74323e-014 -3.97569e-015
lhumerus -43.3125 -4.44304 80.1293
lradius 64.7208
lwrist 6.47924
lhand -1.70972 10.4053
lfingers 7.12502
lthumb 23.9518 38.9313
rfemur -18.1389 -2.70931 18.7029
rtibia 34.5032
rfoot -13.6104 -11.207
rtoes 1.53817
lfemur 15.3163 -10.8327 -16.335
ltibia 1.97233
lfoot -17.6576 -0.593053
ltoes -10.6374
774
root 35.9752 17.4524 0.699752 173.662 80.4768 174.254
lowerback 17.8276 -0.646889 1.9508
upperback 8.21748 0.12037 1.68166
thorax -1.20374 0.333481 0.639324
lowerneck -1.0793 -2.92355 4.25019
upperneck 2.67737 -3.83962 -5.04748
head 0.833423 -1.92661 -2.35699
rclavicle -1.15295e-014 9.54166e-015
rhumerus -40.946 3.26927 -78.8098
rradius 46.0765
rwrist -1.56207
rhand -11.0334 -16.603
rfingers 7.12502
rthumb 14.9883 -46.0405
lclavicle -1.15295e-014 9.54166e-015
lhumerus -43.2311 -4.55519 80.1586
lradius 64.9832
lwrist 6.63287
lhand -1.65429 10.4512
lfingers 7.12502
lthumb 24.0049 38.9702
rfemur -18.1607 -2.71834 18.8209
rtibia 34.5148
rfoot -13.6486 -11.2631
rtoes 1.51814
lfemur 15.3132 -10.8689 -16.2198
ltibia 1.92936
lfoot -17.6602 -0.602732
ltoes -10.6763
775
root 35.9869 17.452 0.707046 174.013 80.4482 174.564
lowerback 17.8489 -0.652747 1.94814
upperback 8.2173 0.114108 1.69177
thorax -1.21498 0.330341 0.652629
lowerneck -1.06911 -2.9129 4.24784
upperneck 2.63736 -3.82859 -4.97856
head 0.820811 -1.92056 -2.33291
rclavicle 6.75868e-015 1.59028e-015
rhumerus -41.0042 3.20375 -78.798
rradius 45.9436
rwrist -1.44356
rhand -11.0461 -16.5935
rfingers 7.12502
rthumb 14.9761 -46.032
lclavicle 6.75868e-015 1.59028e-015
lhumerus -43.1524 -4.67256 80.1912
lradius 65.2045
lwrist 6.75452
lhand -1.6016 10.4804
lfingers 7.12502
lthumb 24.0555 38.9928
rfemur -18.1775 -2.72233 18.9158
rtibia 34.5336
rfoot -13.6904 -11.3285
rtoes 1.498
lfemur 15.3831 -10.9084 -16.1283
ltibia 1.74811
lfoot -17.5896 -0.626706
ltoes -10.7074
776
root 35.9977 17.4516 0.713887 174.275 80.431 174.79
lowerback 17.8769 -0.652889 1.93008
upperback 8.21901 0.112951 1.69595
thorax -1.22765 0.329508 0.66747
lowerneck -1.05756 -2.90163 4.25018
upperneck 2.59435 -3.81686 -4.9098
head 0.806974 -1.91412 -2.30968
rclavicle -4.77083e-015 -1.43125e-014
rhumerus -41.0573 3.14408 -78.7888
rradius 45.8146
rwrist -1.33941
rhand -11.0548 -16.5825
rfingers 7.12502
rthumb 14.9677 -46.0217
lclavicle -4.77083e-015 -1.43125e-014
lhumerus -43.0759 -4.79551 80.2254
lradius 65.388
lwrist 6.84963
lhand -1.5515 10.4998
lfingers 7.12502
lthumb 24.1035 39.0058
rfemur -18.1958 -2.71264 18.9948
rtibia 34.5595
rfoot -13.7327 -11.395
rtoes 1.48473
lfemur 15.5389 -10.9355 -16.0533
ltibia 1.40112
lfoot -17.4344 -0.666269
ltoes -10.7453
777
root 36.0078 17.4509 0.720375 174.488 80.4254 174.972
lowerback 17.9097 -0.648794 1.90046
upperback 8.22252 0.115614 1.69735
thorax -1.24092 0.33039 0.68522
lowerneck -1.04275 -2.88843 4.25557
upperneck 2.54871 -3.80245 -4.84339
head 0.791784 -1.90633 -2.28768
rclavicle -1.59028e-014 -3.57812e-014
rhumerus -41.1033 3.09157 -78.7813
rradius 45.6897
rwrist -1.24939
rhand -11.0644 -16.5709
rfingers 7.12502
rthumb 14.9585 -46.0107
lclavicle -1.59028e-014 -3.57812e-014
lhumerus -43.0064 -4.92178 80.2627
lradius 65.5376
lwrist 6.9187
lhand -1.51573 10.5098
lfingers 7.12502
lthumb 24.1378 39.0112
rfemur -18.2142 -2.69119 19.0658
rtibia 34.5902
rfoot -13.7752 -11.4618
rtoes 1.46847
lfemur 15.8258 -10.9517 -15.9866
ltibia 0.795468
lfoot -17.149 -0.730839
ltoes -10.7832
778
root 36.0173 17.4501 0.726511 174.673 80.4376 175.128
lowerback 17.9434 -0.640482 1.85765
upperback 8.22784 0.121642 1.69863
thorax -1.25268 0.33264 0.709689
lowerneck -1.02606 -2.87032 4.25928
upperneck 2.50241 -3.78124 -4.77965
head 0.77638 -1.89516 -2.26621
rclavicle 3.97569e-015 -2.06736e-014
rhumerus -41.1364 3.04942 -78.7731
rradius 45.5671
rwrist -1.17137
rhand -11.0678 -16.5579
rfingers 7.12502
rthumb 14.9551 -45.9979
lclavicle 3.97569e-015 -2.06736e-014
lhumerus -42.943 -5.03932 80.3025
lradius 65.651
lwrist 6.96442
lhand -1.49232 10.5151
lfingers 7.12502
lthumb 24.1602 39.0135
rfemur -18.2351 -2.65582 19.1325
rtibia 34.622
rfoot -13.8146 -11.5223
rtoes 1.45509
lfemur 16.2086 -10.9508 -15.924
ltibia 2.54444e-014
lfoot -16.7693 -0.812544
ltoes -10.8208
779
root 36.026 17.449 0.732225 174.863 80.4702 175.29
lowerback 17.9774 -0.627936 1.81069
upperback 8.23379 0.132343 1.69877
thorax -1.26395 0.337088 0.734429
lowerneck -1.01068 -2.84894 4.26602
upperneck 2.46009 -3.75548 -4.71969
head 0.762559 -1.88176 -2.24664
rclavicle -4.37326e-015 -1.82882e-014
rhumerus -41.1584 3.01372 -78.7662
rradius 45.4496
rwrist -1.10461
rhand -11.0599 -16.5483
rfingers 7.12502
rthumb 14.9628 -45.9878
lclavicle -4.37326e-015 -1.82882e-014
lhumerus -42.8864 -5.15016 80.3411
lradius 65.7269
lwrist 6.98672
lhand -1.48162 10.518
lfingers 7.12502
lthumb 24.1705 39.0151
rfemur -18.2588 -2.60812 19.2003
rtibia 34.6505
rfoot -13.8484 -11.5721
rtoes 1.44431
lfemur 16.2112 -10.9251 -15.8617
ltibia -1.27222e-014
lfoot -16.796 -0.811106
ltoes -10.8606
780
root 36.0342 17.4479 0.737586 175.108 80.5207 175.507
lowerback 18.0083 -0.613879 1.76528
upperback 8.24015 0.145099 1.70159
thorax -1.27322 0.342507 0.760744
lowerneck -0.992898 -2.82278 4.27446
upperneck 2.42028 -3.7229 -4.66808
head 0.749268 -1.86497 -2.23012
rclavicle -3.97569e-015 -5.56597e-015
rhumerus -41.1682 2.98452 -78.7576
rradius 45.3376
rwrist -1.04338
rhand -11.0412 -16.54
rfingers 7.12502
rthumb 14.9808 -45.9782
lclavicle -3.97569e-015 -5.56597e-015
lhumerus -42.8399 -5.24736 80.3796
lradius 65.7698
lwrist 6.99155
lhand -1.47861 10.521
lfingers 7.12502
lthumb 24.1734 39.0177
rfemur -18.2839 -2.55032 19.2782
rtibia 34.6721
rfoot -13.8754 -11.6108
rtoes 1.43548
lfemur 16.2154 -10.8824 -15.7885
ltibia 6.36111e-014
lfoot -16.8259 -0.80885
ltoes -10.8983
781
root 36.0419 17.4467 0.742524 175.434 80.5835 175.804
lowerback 18.0383 -0.600321 1.72948
upperback 8.24439 0.158552 1.70673
thorax -1.28424 0.348346 0.78391
lowerneck -0.975259 -2.79369 4.28533
upperneck 2.38667 -3.68599 -4.62399
head 0.737987 -1.84606 -2.21661
rclavicle 1.55052e-014 2.3059e-014
rhumerus -41.1693 2.95812 -78.7479
rradius 45.231
rwrist -0.987483
rhand -11.0142 -16.5362
rfingers 7.12502
rthumb 15.0069 -45.9724
lclavicle 1.55052e-014 2.3059e-014
lhumerus -42.8054 -5.33213 80.4161
lradius 65.7791
lwrist 6.9793
lhand -1.48574 10.5195
lfingers 7.12502
lthumb 24.1666 39.0171
rfemur -18.3092 -2.48833 19.3694
rtibia 34.6833
rfoot -13.8955 -11.6382
rtoes 1.42974
lfemur 16.2191 -10.8284 -15.7008
ltibia -3.49861e-014
lfoot -16.8576 -0.806333
ltoes -10.9332
782
root 36.0492 17.4457 0.747004 175.826 80.6553 176.167
lowerback 18.0618 -0.588453 1.70119
upperback 8.24902 0.170719 1.71379
thorax -1.29149 0.353662 0.80511
lowerneck -0.957433 -2.76095 4.29233
upperneck 2.35718 -3.64388 -4.5827
head 0.728223 -1.82459 -2.20338
rclavicle 1.90833e-014 -6.12257e-014
rhumerus -41.1595 2.93621 -78.7369
rradius 45.1306
rwrist -0.936445
rhand -10.9881 -16.5323
rfingers 7.12502
rthumb 15.032 -45.9666
lclavicle 1.90833e-014 -6.12257e-014
lhumerus -42.778 -5.39994 80.45
lradius 65.7542
lwrist 6.95305
lhand -1.49335 10.5203
lfingers 7.12502
lthumb 24.1593 39.0189
rfemur -18.3334 -2.42742 19.47
rtibia 34.6827
rfoot -13.9077 -11.6523
rtoes 1.42556
lfemur 16.2218 -10.7656 -15.6024
ltibia 3.49861e-014
lfoot -16.89 -0.803646
ltoes -10.9601
783
root 36.0564 17.4447 0.750974 176.3 80.7251 176.61
lowerback 18.0821 -0.581697 1.68721
upperback 8.25135 0.17829 1.72213
thorax -1.29956 0.356924 0.820407
lowerneck -0.939058 -2.72602 4.30136
upperneck 2.33455 -3.59839 -4.54918
head 0.720513 -1.80145 -2.19317
rclavicle -2.18663e-014 -4.37326e-014
rhumerus -41.1457 2.90978 -78.7243
rradius 45.0392
rwrist -0.884353
rhand -10.9514 -16.5329
rfingers 7.12502
rthumb 15.0673 -45.9646
lclavicle -2.18663e-014 -4.37326e-014
lhumerus -42.7632 -5.45674 80.4805
lradius 65.6991
lwrist 6.91856
lhand -1.49855 10.5259
lfingers 7.12502
lthumb 24.1543 39.0251
rfemur -18.3534 -2.37436 19.5817
rtibia 34.6698
rfoot -13.9137 -11.6575
rtoes 1.42222
lfemur 16.2226 -10.705 -15.4921
ltibia -1.90833e-014
lfoot -16.9229 -0.799677
ltoes -10.9858
